<svg width="68" height="18" viewBox="0 0 68 18" fill="none" xmlns="http://www.w3.org/2000/svg">
<path d="M10.818 11.05L9.306 5.362H6.984L5.454 11.014L3.168 3.598H0.126L4.302 16H6.516L8.118 9.7L9.774 16H11.97L16.182 3.598H13.104L10.818 11.05ZM23.4487 8.602C22.8727 7.828 21.8467 7.378 20.8207 7.378C18.4267 7.378 16.7707 9.16 16.7707 11.806C16.7707 14.434 18.4267 16.216 20.7847 16.216C21.8467 16.216 22.8727 15.73 23.4487 14.938V16H26.1127V7.594H23.4487V8.602ZM21.4327 13.75C20.2807 13.75 19.4887 12.832 19.4887 11.806C19.4887 10.726 20.2807 9.844 21.4147 9.844C22.4947 9.844 23.3587 10.708 23.3587 11.806C23.3587 12.832 22.5127 13.75 21.4327 13.75ZM29.086 7.594V10.06H32.578L28.852 14.038V16H36.466V13.534H32.686L36.466 9.574V7.594H29.086ZM45.4283 8.602C44.8523 7.828 43.8263 7.378 42.8003 7.378C40.4063 7.378 38.7503 9.16 38.7503 11.806C38.7503 14.434 40.4063 16.216 42.7643 16.216C43.8263 16.216 44.8523 15.73 45.4283 14.938V16H48.0923V7.594H45.4283V8.602ZM43.4123 13.75C42.2603 13.75 41.4683 12.832 41.4683 11.806C41.4683 10.726 42.2603 9.844 43.3943 9.844C44.4743 9.844 45.3383 10.708 45.3383 11.806C45.3383 12.832 44.4923 13.75 43.4123 13.75ZM56.4837 7.378C55.6197 7.378 54.5037 7.72 53.8917 8.512V3.022H51.2277V16H53.8917V15.064C54.5037 15.874 55.6197 16.216 56.4837 16.216C58.5897 16.216 60.5697 14.506 60.5697 11.788C60.5697 9.07 58.5897 7.378 56.4837 7.378ZM55.9257 13.75C54.8997 13.75 53.9817 12.868 53.9817 11.788C53.9817 10.708 54.9177 9.844 55.9257 9.844C56.9697 9.844 57.8697 10.726 57.8697 11.788C57.8697 12.85 56.9697 13.75 55.9257 13.75ZM64.5515 6.334C65.4515 6.334 66.1715 5.632 66.1715 4.786C66.1715 3.904 65.4515 3.238 64.5515 3.238C63.6515 3.238 62.8955 3.904 62.8955 4.786C62.8955 5.632 63.6515 6.334 64.5515 6.334ZM65.8835 16V7.594H63.2195V16H65.8835Z" fill="#151715"/>
<mask id="mask0" mask-type="alpha" maskUnits="userSpaceOnUse" x="61" y="0" width="7" height="7">
<circle cx="64.5" cy="3.5" r="3" fill="#99E4A5"/>
</mask>
<g mask="url(#mask0)">
<circle cx="64.5" cy="3.5" r="3" fill="#82D38F"/>
<circle cx="63.5" cy="2.5" r="3" fill="#99E4A5"/>
</g>
</svg>
